grf
version=1
nRows=66
nColumns=19
inDegrees=yes
endheader
time	ground_force_1_vx	ground_force_1_vy	ground_force_1_vz	ground_force_1_px	ground_force_1_py	ground_force_1_pz	ground_moment_1_mx	ground_moment_1_my	ground_moment_1_mz	ground_force_2_vx	ground_force_2_vy	ground_force_2_vz	ground_force_2_px	ground_force_2_py	ground_force_2_pz	ground_moment_2_mx	ground_moment_2_my	ground_moment_2_mz
0.500000	7.196843	525.836815	-36.301055	-0.320044	-0.000000	-0.153986	0.000000	0.598091	-0.000000	0.000000	0.000000	0.000000	0.126058	0.000000	-0.321660	0.000000	0.000000	0.000000
0.501000	7.479118	525.790472	-36.392923	-0.319830	-0.000000	-0.153931	0.000000	0.622450	-0.000000	0.000000	0.000000	0.000000	0.126553	0.000000	-0.321360	0.000000	0.000000	0.000000
0.502000	7.759467	525.749533	-36.488049	-0.319610	-0.000000	-0.153872	0.000000	0.646730	-0.000000	0.000000	0.000000	0.000000	0.127145	0.000000	-0.321001	0.000000	0.000000	0.000000
0.503000	8.037730	525.713809	-36.586420	-0.319384	-0.000000	-0.153809	0.000000	0.670930	-0.000000	0.000000	0.000000	0.000000	0.127912	0.000000	-0.320536	0.000000	0.000000	0.000000
0.504000	8.313743	525.683115	-36.688023	-0.319152	-0.000000	-0.153741	0.000000	0.695045	-0.000000	0.000000	0.000000	0.000000	0.129015	0.000000	-0.319867	0.000000	0.000000	0.000000
0.505000	8.587345	525.657273	-36.792845	-0.318914	-0.000000	-0.153668	0.000000	0.719073	-0.000000	0.000000	0.000000	0.000000	0.130874	0.000000	-0.318740	0.000000	0.000000	0.000000
0.506000	8.858372	525.636111	-36.900868	-0.318669	-0.000000	-0.153591	0.000000	0.743010	-0.000000	0.000000	0.000000	0.000000	0.135019	0.000000	-0.316228	0.000000	0.000000	0.000000
0.507000	9.126663	525.619464	-37.012075	-0.318418	-0.000000	-0.153510	0.000000	0.766854	-0.000000	0.000000	0.000000	0.000000	0.155317	0.000000	-0.303923	0.000000	0.000000	0.000000
0.508000	9.392057	525.607176	-37.126447	-0.318160	-0.000000	-0.153426	0.000000	0.790601	-0.000000	0.000000	0.000000	0.000000	0.095736	0.000000	-0.340042	0.000000	0.000000	0.000000
0.509000	9.654390	525.599096	-37.243964	-0.317896	-0.000000	-0.153340	0.000000	0.814248	-0.000000	0.000000	0.000000	0.000000	0.115535	0.000000	-0.328040	0.000000	0.000000	0.000000
0.510000	9.913505	525.595081	-37.364603	-0.317625	-0.000000	-0.153252	0.000000	0.837794	-0.000000	0.000000	0.000000	0.000000	0.119639	0.000000	-0.325552	0.000000	0.000000	0.000000
0.511000	10.169241	525.594997	-37.488341	-0.317349	-0.000000	-0.153162	0.000000	0.861235	-0.000000	0.000000	0.000000	0.000000	0.121487	0.000000	-0.324431	0.000000	0.000000	0.000000
0.512000	10.421440	525.598716	-37.615152	-0.317067	-0.000000	-0.153067	0.000000	0.884570	-0.000000	0.000000	0.000000	0.000000	0.122586	0.000000	-0.323765	0.000000	0.000000	0.000000
0.513000	10.669948	525.606118	-37.745011	-0.316778	-0.000000	-0.152968	0.000000	0.907796	-0.000000	0.000000	0.000000	0.000000	0.123351	0.000000	-0.323302	0.000000	0.000000	0.000000
0.514000	10.914610	525.617093	-37.877889	-0.316482	-0.000000	-0.152863	0.000000	0.930911	-0.000000	0.000000	0.000000	0.000000	0.123941	0.000000	-0.322943	0.000000	0.000000	0.000000
0.515000	11.155274	525.631538	-38.013756	-0.316182	-0.000000	-0.152754	0.000000	0.953913	-0.000000	0.000000	0.000000	0.000000	0.124436	0.000000	-0.322643	0.000000	0.000000	0.000000
0.516000	11.391792	525.649357	-38.152582	-0.315877	-0.000000	-0.152642	0.000000	0.976800	-0.000000	0.000000	0.000000	0.000000	0.124880	0.000000	-0.322374	0.000000	0.000000	0.000000
0.517000	11.624015	525.670464	-38.294334	-0.315568	-0.000000	-0.152526	0.000000	0.999571	-0.000000	0.000000	0.000000	0.000000	0.125302	0.000000	-0.322118	0.000000	0.000000	0.000000
0.518000	11.851800	525.694781	-38.438980	-0.315256	-0.000000	-0.152409	0.000000	1.022224	-0.000000	0.000000	0.000000	0.000000	0.125728	0.000000	-0.321860	0.000000	0.000000	0.000000
0.519000	12.075007	525.722239	-38.586484	-0.314941	-0.000000	-0.152291	0.000000	1.044757	-0.000000	0.000000	0.000000	0.000000	0.126182	0.000000	-0.321585	0.000000	0.000000	0.000000
0.520000	12.293499	525.752777	-38.736809	-0.314623	-0.000000	-0.152171	0.000000	1.067170	-0.000000	0.000000	0.000000	0.000000	0.126698	0.000000	-0.321272	0.000000	0.000000	0.000000
0.521000	12.507141	525.786343	-38.889918	-0.314303	-0.000000	-0.152048	0.000000	1.089461	-0.000000	0.000000	0.000000	0.000000	0.127326	0.000000	-0.320891	0.000000	0.000000	0.000000
0.522000	12.715803	525.822894	-39.045773	-0.313980	-0.000000	-0.151924	0.000000	1.111630	-0.000000	0.000000	0.000000	0.000000	0.128160	0.000000	-0.320386	0.000000	0.000000	0.000000
0.523000	12.919360	525.862395	-39.204333	-0.313653	-0.000000	-0.151797	0.000000	1.133675	-0.000000	0.000000	0.000000	0.000000	0.129404	0.000000	-0.319632	0.000000	0.000000	0.000000
0.524000	13.117691	525.904821	-39.365557	-0.313324	-0.000000	-0.151668	0.000000	1.155595	-0.000000	0.000000	0.000000	0.000000	0.131621	0.000000	-0.318288	0.000000	0.000000	0.000000
0.525000	13.310678	525.950154	-39.529403	-0.312991	-0.000000	-0.151535	0.000000	1.177390	-0.000000	0.000000	0.000000	0.000000	0.137199	0.000000	-0.314906	0.000000	0.000000	0.000000
0.526000	13.498208	525.998386	-39.695826	-0.312654	-0.000000	-0.151399	0.000000	1.199060	-0.000000	0.000000	0.000000	0.000000	0.189834	0.000000	-0.282997	0.000000	0.000000	0.000000
0.527000	13.680175	526.049518	-39.864782	-0.312313	-0.000000	-0.151259	0.000000	1.220604	-0.000000	0.000000	0.000000	0.000000	0.105939	0.000000	-0.333857	0.000000	0.000000	0.000000
0.528000	13.856477	526.103559	-40.036225	-0.311970	-0.000000	-0.151117	0.000000	1.242022	-0.000000	0.000000	0.000000	0.000000	0.117054	0.000000	-0.327118	0.000000	0.000000	0.000000
0.529000	14.027015	526.160527	-40.210108	-0.311624	-0.000000	-0.150972	0.000000	1.263313	-0.000000	0.000000	0.000000	0.000000	0.120246	0.000000	-0.325183	0.000000	0.000000	0.000000
0.530000	14.191700	526.220450	-40.386384	-0.311275	-0.000000	-0.150826	0.000000	1.284479	-0.000000	0.000000	0.000000	0.000000	0.121826	0.000000	-0.324226	0.000000	0.000000	0.000000
0.531000	14.350445	526.283362	-40.565003	-0.310924	-0.000000	-0.150679	0.000000	1.305518	-0.000000	0.000000	0.000000	0.000000	0.122812	0.000000	-0.323628	0.000000	0.000000	0.000000
0.532000	14.503172	526.349307	-40.745915	-0.310569	-0.000000	-0.150532	0.000000	1.326431	-0.000000	0.000000	0.000000	0.000000	0.123519	0.000000	-0.323199	0.000000	0.000000	0.000000
0.533000	14.649805	526.418337	-40.929070	-0.310212	-0.000000	-0.150385	0.000000	1.347219	-0.000000	0.000000	0.000000	0.000000	0.124079	0.000000	-0.322860	0.000000	0.000000	0.000000
0.534000	14.790278	526.490514	-41.114415	-0.309851	-0.000000	-0.150238	0.000000	1.367881	-0.000000	0.000000	0.000000	0.000000	0.124557	0.000000	-0.322570	0.000000	0.000000	0.000000
0.535000	14.924531	526.565906	-41.301899	-0.309488	-0.000000	-0.150089	0.000000	1.388419	-0.000000	0.000000	0.000000	0.000000	0.124993	0.000000	-0.322306	0.000000	0.000000	0.000000
0.536000	15.052509	526.644589	-41.491469	-0.309120	-0.000000	-0.149936	0.000000	1.408832	-0.000000	0.000000	0.000000	0.000000	0.125413	0.000000	-0.322051	0.000000	0.000000	0.000000
0.537000	15.174165	526.726650	-41.683069	-0.308748	-0.000000	-0.149778	0.000000	1.429123	-0.000000	0.000000	0.000000	0.000000	0.125844	0.000000	-0.321790	0.000000	0.000000	0.000000
0.538000	15.289458	526.812180	-41.876646	-0.308372	-0.000000	-0.149613	0.000000	1.449291	-0.000000	0.000000	0.000000	0.000000	0.126311	0.000000	-0.321507	0.000000	0.000000	0.000000
0.539000	15.398355	526.901281	-42.072143	-0.307990	-0.000000	-0.149439	0.000000	1.469338	-0.000000	0.000000	0.000000	0.000000	0.126850	0.000000	-0.321180	0.000000	0.000000	0.000000
0.540000	15.500829	526.994060	-42.269506	-0.307603	-0.000000	-0.149258	0.000000	1.489264	-0.000000	0.000000	0.000000	0.000000	0.127521	0.000000	-0.320773	0.000000	0.000000	0.000000
0.541000	15.596863	527.090632	-42.468678	-0.307211	-0.000000	-0.149070	-0.000000	1.509070	-0.000000	0.000000	0.000000	0.000000	0.128436	0.000000	-0.320218	0.000000	0.000000	0.000000
0.542000	15.686445	527.191119	-42.669600	-0.306813	-0.000000	-0.148876	-0.000000	1.528759	-0.000000	0.000000	0.000000	0.000000	0.129855	0.000000	-0.319358	0.000000	0.000000	0.000000
0.543000	15.769571	527.295652	-42.872217	-0.306409	-0.000000	-0.148678	-0.000000	1.548330	-0.000000	0.000000	0.000000	0.000000	0.132558	0.000000	-0.317720	0.000000	0.000000	0.000000
0.544000	15.846245	527.404365	-43.076469	-0.305998	-0.000000	-0.148476	-0.000000	1.567786	-0.000000	0.000000	0.000000	0.000000	0.140552	0.000000	-0.312874	0.000000	0.000000	0.000000
0.545000	15.916479	527.517402	-43.282298	-0.305578	-0.000000	-0.148271	-0.000000	1.587127	-0.000000	0.000000	0.000000	0.000000	-0.323649	-0.000000	-0.594285	0.000000	0.000000	0.000000
0.546000	15.980292	527.634911	-43.489647	-0.305150	-0.000000	-0.148064	-0.000000	1.606355	-0.000000	0.000000	0.000000	0.000000	0.110941	0.000000	-0.330824	0.000000	0.000000	0.000000
0.547000	16.037713	527.757047	-43.698454	-0.304713	-0.000000	-0.147858	-0.000000	1.625472	-0.000000	0.000000	0.000000	0.000000	0.118189	0.000000	-0.326431	0.000000	0.000000	0.000000
0.548000	16.088777	527.883969	-43.908662	-0.304267	-0.000000	-0.147651	-0.000000	1.644479	-0.000000	0.000000	0.000000	0.000000	0.120755	0.000000	-0.324875	0.000000	0.000000	0.000000
0.549000	16.133527	528.015844	-44.120210	-0.303812	-0.000000	-0.147444	-0.000000	1.663377	-0.000000	0.000000	0.000000	0.000000	0.122126	0.000000	-0.324044	0.000000	0.000000	0.000000
0.550000	16.172016	528.152843	-44.333040	-0.303348	-0.000000	-0.147237	-0.000000	1.682169	-0.000000	0.000000	0.000000	0.000000	0.123019	0.000000	-0.323503	0.000000	0.000000	0.000000
0.551000	16.204304	528.295141	-44.547090	-0.302872	-0.000000	-0.147027	-0.000000	1.700855	-0.000000	0.000000	0.000000	0.000000	0.123678	0.000000	-0.323103	0.000000	0.000000	0.000000
0.552000	16.230459	528.442919	-44.762301	-0.302385	-0.000000	-0.146815	-0.000000	1.719438	-0.000000	0.000000	0.000000	0.000000	0.124212	0.000000	-0.322780	0.000000	0.000000	0.000000
0.553000	16.250558	528.596361	-44.978613	-0.301889	-0.000000	-0.146599	-0.000000	1.737919	-0.000000	0.000000	0.000000	0.000000	0.124675	0.000000	-0.322499	0.000000	0.000000	0.000000
0.554000	16.264686	528.755656	-45.195966	-0.301386	-0.000000	-0.146380	-0.000000	1.756300	-0.000000	0.000000	0.000000	0.000000	0.125104	0.000000	-0.322238	0.000000	0.000000	0.000000
0.555000	16.272937	528.920996	-45.414300	-0.300875	-0.000000	-0.146159	-0.000000	1.774583	-0.000000	0.000000	0.000000	0.000000	0.125525	0.000000	-0.321983	0.000000	0.000000	0.000000
0.556000	16.275412	529.092576	-45.633555	-0.300359	-0.000000	-0.145937	-0.000000	1.792768	-0.000000	0.000000	0.000000	0.000000	0.125963	0.000000	-0.321718	0.000000	0.000000	0.000000
0.557000	16.272221	529.270594	-45.853671	-0.299839	-0.000000	-0.145713	-0.000000	1.810859	-0.000000	0.000000	0.000000	0.000000	0.126445	0.000000	-0.321426	0.000000	0.000000	0.000000
0.558000	16.263482	529.455252	-46.074589	-0.299313	-0.000000	-0.145490	-0.000000	1.828857	-0.000000	0.000000	0.000000	0.000000	0.127012	0.000000	-0.321082	0.000000	0.000000	0.000000
0.559000	16.249322	529.646752	-46.296248	-0.298784	-0.000000	-0.145266	-0.000000	1.846763	-0.000000	0.000000	0.000000	0.000000	0.127733	0.000000	-0.320645	0.000000	0.000000	0.000000
0.560000	16.229876	529.845299	-46.518590	-0.298250	-0.000000	-0.145042	-0.000000	1.864579	-0.000000	0.000000	0.000000	0.000000	0.128745	0.000000	-0.320031	0.000000	0.000000	0.000000
0.561000	16.205287	530.051099	-46.741556	-0.297713	-0.000000	-0.144818	-0.000000	1.882307	-0.000000	0.000000	0.000000	0.000000	0.130386	0.000000	-0.319037	0.000000	0.000000	0.000000
0.562000	16.175706	530.264360	-46.965087	-0.297172	-0.000000	-0.144595	-0.000000	1.899949	-0.000000	0.000000	0.000000	0.000000	0.133774	0.000000	-0.316982	0.000000	0.000000	0.000000
0.563000	16.141292	530.485288	-47.189124	-0.296627	-0.000000	-0.144373	-0.000000	1.917505	-0.000000	0.000000	0.000000	0.000000	0.146399	0.000000	-0.309329	0.000000	0.000000	0.000000
0.564000	16.102213	530.714094	-47.413609	-0.296080	-0.000000	-0.144153	-0.000000	1.934979	-0.000000	0.000000	0.000000	0.000000	0.075111	0.000000	-0.352546	0.000000	0.000000	0.000000
0.565000	16.058644	530.950983	-47.638486	-0.295529	-0.000000	-0.143936	-0.000000	1.952370	-0.000000	0.000000	0.000000	0.000000	0.113921	0.000000	-0.329018	0.000000	0.000000	0.000000
